<?xml version="1.0" standalone="no"?>
<!DOCTYPE svg PUBLIC "-//W3C//DTD SVG 20010904//EN"
 "http://www.w3.org/TR/2001/REC-SVG-20010904/DTD/svg10.dtd">
<svg version="1.0" xmlns="http://www.w3.org/2000/svg"
 width="16.000000pt" height="16.000000pt" viewBox="0 0 16.000000 16.000000"
 preserveAspectRatio="xMidYMid meet">
<metadata>
Created by potrace 1.11, written by Peter Selinger 2001-2013
</metadata>
<g transform="translate(0.000000,16.000000) scale(0.001411,-0.001411)"
fill="#000000" stroke="none">
<path d="M4950 8790 c0 -4 -37 -8 -82 -8 -156 -2 -236 -7 -231 -15 2 -4 -11
-7 -29 -7 -67 0 -108 -5 -108 -11 0 -4 -10 -7 -22 -7 -13 0 -39 -3 -58 -7 -19
-3 -43 -6 -52 -6 -10 0 -18 -5 -18 -10 0 -6 -4 -8 -9 -5 -8 5 -142 -26 -236
-54 -16 -5 -57 -17 -90 -26 -33 -9 -64 -19 -70 -23 -5 -3 -14 -7 -20 -8 -28
-7 -132 -44 -147 -53 -10 -5 -23 -10 -29 -10 -21 0 -408 -197 -437 -223 -9 -8
-35 -24 -57 -36 -52 -27 -169 -110 -173 -122 -2 -5 -7 -7 -11 -4 -5 2 -31 -17
-59 -43 -28 -26 -79 -72 -114 -102 -79 -69 -258 -249 -357 -360 -93 -103 -147
-176 -192 -255 -32 -59 -30 -57 121 95 243 243 407 384 637 548 260 186 585
352 824 421 80 24 80 24 154 41 28 6 59 14 70 16 57 14 264 50 330 59 22 3 60
8 85 11 25 3 58 7 75 10 136 19 594 25 755 10 113 -10 150 -14 245 -21 44 -4
98 -8 120 -10 22 -2 69 -7 105 -10 36 -3 85 -7 110 -10 94 -9 208 -17 295 -20
50 -3 110 -6 135 -9 25 -2 86 -7 135 -10 50 -4 106 -9 125 -11 19 -3 80 -7
135 -10 55 -3 117 -8 139 -11 27 -4 36 -3 32 5 -4 6 -10 10 -14 7 -4 -2 -16 0
-27 5 -15 7 -11 8 18 6 20 -2 37 1 37 5 0 4 -5 8 -11 8 -6 0 -8 8 -4 19 4 15
1 20 -12 19 -43 -1 -169 15 -177 23 -6 6 -4 9 5 9 7 0 25 3 38 7 19 5 22 3 16
-8 -7 -12 -6 -12 7 -1 12 9 17 10 20 1 4 -11 49 -17 208 -25 130 -7 200 -11
203 -14 1 -1 36 -4 77 -6 41 -3 83 -6 93 -8 9 -2 17 0 17 5 0 5 -17 9 -37 9
-56 1 -176 27 -138 30 17 1 37 2 47 1 9 -1 19 2 22 7 3 6 -12 8 -38 6 -24 -3
-55 0 -70 6 -29 11 -34 3 -10 -14 18 -14 -6 -14 -146 0 -47 4 -89 7 -94 5 -5
-1 -16 1 -25 5 -9 4 -28 6 -43 5 -14 -1 -29 3 -34 10 -5 9 -2 10 9 6 9 -3 27
-2 39 3 27 10 27 10 -72 16 -41 3 -77 10 -81 16 -4 6 -9 6 -12 1 -4 -5 -20 -8
-37 -5 -21 3 -30 0 -30 -9 -1 -9 -4 -8 -11 4 -10 18 -12 18 -30 1 -11 -9 -22
-14 -26 -10 -4 4 -1 11 7 16 12 8 11 10 -6 10 -21 0 -49 -22 -39 -31 2 -3 -6
-5 -19 -5 -18 0 -22 4 -17 21 5 18 6 18 9 2 3 -14 7 -16 18 -6 24 19 16 29
-23 29 -25 0 -33 -3 -24 -9 10 -7 11 -13 2 -30 -10 -18 -9 -21 6 -22 10 0 34
-1 55 -2 20 -1 35 0 33 3 -2 3 8 6 23 7 24 2 24 1 7 -7 -19 -8 -19 -9 2 -9 12
-1 25 -5 28 -11 4 -6 -18 -7 -57 -3 -93 9 -113 16 -112 41 0 16 -5 22 -20 22
-16 0 -18 3 -7 9 18 12 5 17 -59 26 -30 4 -63 9 -72 11 -10 2 -27 6 -38 8 -11
3 -22 1 -25 -5 -4 -5 -15 -4 -28 3 -12 6 -23 11 -24 10 -2 -1 -4 -2 -5 -1 -27
8 -157 23 -205 24 -18 0 -33 5 -33 10 0 6 -5 3 -10 -5 -5 -8 -10 -10 -10 -5 0
6 -15 11 -32 12 -18 1 -55 4 -83 7 -27 2 -79 7 -115 11 -35 3 -66 8 -68 10 -2
2 -14 0 -27 -5 -13 -5 -26 -6 -30 -2 -4 4 -34 8 -68 10 -399 16 -517 19 -517
11 0 -3 -13 -6 -30 -5 -16 1 -30 4 -30 9 0 4 -5 7 -11 7 -5 0 -7 -5 -3 -12 5
-7 3 -8 -7 -2 -19 12 -39 14 -39 4z m1460 -121 c0 -6 -4 -7 -10 -4 -5 3 -10
11 -10 16 0 6 5 7 10 4 6 -3 10 -11 10 -16z m390 -47 c0 -4 -16 -6 -35 -4 -19
2 -35 6 -35 8 0 2 16 4 35 4 19 0 35 -4 35 -8z m84 -1 c3 -5 -6 -8 -20 -8 -19
0 -22 2 -13 8 18 11 26 11 33 0z m-125 -20 c7 -5 10 -14 6 -20 -5 -9 -10 -9
-21 0 -26 22 -14 38 15 20z m-16 -88 c-7 -2 -19 -2 -25 0 -7 3 -2 5 12 5 14 0
19 -2 13 -5z m105 0 c-10 -2 -28 -2 -40 0 -13 2 -5 4 17 4 22 1 32 -1 23 -4z"/>
<path d="M6989 8619 c-10 -6 -7 -9 11 -10 14 0 33 -2 42 -4 9 -2 15 2 12 8 -5
15 -46 18 -65 6z"/>
<path d="M7070 8613 c0 -15 2 -16 10 -3 6 10 10 11 10 3 0 -7 5 -13 11 -13 8
0 8 5 -1 15 -17 20 -30 19 -30 -2z"/>
<path d="M7154 8599 c-3 -5 12 -9 32 -9 41 0 41 10 0 14 -15 2 -29 -1 -32 -5z"/>
<path d="M7410 8570 c-9 -6 -10 -10 -3 -10 6 0 15 5 18 10 8 12 4 12 -15 0z"/>
<path d="M7446 8571 c-3 -4 6 -6 19 -3 14 2 25 6 25 8 0 8 -39 4 -44 -5z"/>
<path d="M7508 8573 c7 -3 16 -2 19 1 4 3 -2 6 -13 5 -11 0 -14 -3 -6 -6z"/>
<path d="M7487 8553 c-13 -12 -7 -23 11 -22 10 0 12 3 4 6 -6 2 -10 9 -6 14 6
10 0 12 -9 2z"/>
<path d="M7008 8544 c6 -3 12 -12 12 -20 0 -9 -4 -12 -10 -9 -5 3 -10 3 -10
-2 1 -21 20 -31 73 -36 64 -6 72 2 10 10 -69 9 -49 16 30 10 44 -4 77 -3 77 3
0 5 -9 7 -20 5 -11 -2 -22 0 -24 4 -3 4 -30 6 -61 3 -34 -3 -55 -1 -55 6 0 6
31 10 77 11 84 1 115 11 37 12 -27 0 -71 2 -99 4 -27 3 -44 2 -37 -1z"/>
<path d="M7212 8494 c4 -3 23 -10 43 -14 21 -5 34 -5 29 -1 -10 10 -80 24 -72
15z"/>
<path d="M7615 8446 c-27 -7 -78 -27 -112 -45 -34 -17 -67 -31 -72 -31 -6 0
-11 -5 -11 -11 0 -5 -4 -7 -10 -4 -5 3 -10 0 -10 -7 0 -13 -79 -98 -92 -98
-14 0 -101 -93 -163 -174 -33 -44 -85 -104 -115 -135 -31 -31 -94 -101 -141
-156 -48 -55 -106 -122 -130 -149 -27 -31 -35 -45 -22 -37 12 6 25 15 28 21 3
5 20 19 38 31 l32 21 -35 -32 c-76 -69 -258 -250 -252 -250 11 0 -39 -43 -90
-78 -43 -30 -82 -68 -47 -46 44 27 99 66 104 75 4 5 11 6 17 3 6 -4 8 -2 5 3
-4 6 8 17 26 24 36 15 160 100 212 147 7 6 18 12 24 12 12 0 15 -20 4 -20 -5
0 -23 -14 -41 -30 -19 -16 -42 -32 -53 -35 -24 -8 -24 -21 -1 -34 13 -7 25 -2
52 21 19 17 28 27 20 23 -8 -4 -25 -17 -36 -27 -13 -12 -24 -15 -28 -10 -7 11
40 43 88 62 16 6 26 13 23 17 -4 3 3 15 15 25 14 12 24 15 26 8 3 -8 8 -7 18
1 12 10 12 14 2 20 -8 5 -2 10 18 15 30 8 94 53 94 67 0 4 -13 1 -30 -8 -29
-15 -90 -21 -76 -7 4 4 11 7 14 7 4 0 13 4 21 9 10 6 12 5 7 -2 -10 -17 6 -15
32 4 13 9 35 17 48 19 14 1 35 12 46 23 16 16 17 20 5 19 -23 -3 -16 17 8 20
31 5 48 13 42 20 -4 3 -2 12 4 20 9 10 8 13 -2 14 -8 1 -3 4 11 8 14 4 24 13
23 19 -2 7 1 12 5 12 14 0 53 41 47 50 -3 5 4 11 15 15 11 3 20 10 20 14 0 4
18 26 39 49 22 23 37 42 33 42 -3 0 2 6 13 13 10 8 15 19 12 24 -4 6 7 21 23
33 17 13 30 26 30 31 0 11 37 53 100 115 51 50 57 53 92 47 37 -5 41 -3 98 58
33 35 60 66 60 70 0 20 -32 77 -45 83 -20 7 -18 7 -80 -8z m-578 -729 c-12
-13 -24 -22 -26 -20 -6 4 30 43 40 43 5 0 -2 -10 -14 -23z m-166 -137 c6 0 7
6 3 13 -5 9 -4 9 6 0 10 -9 5 -18 -21 -41 -20 -18 -38 -27 -43 -22 -13 13 14
42 33 35 12 -4 12 -2 -2 9 -13 10 -15 15 -5 18 7 3 15 1 16 -3 2 -5 8 -9 13
-9z m-54 -86 c-3 -3 -12 -4 -19 -1 -8 3 -5 6 6 6 11 1 17 -2 13 -5z"/>
<path d="M4472 8333 c-7 -3 -22 -23 -33 -44 -11 -22 -31 -44 -44 -49 -16 -6
-23 -15 -19 -25 3 -8 9 -15 13 -15 4 0 0 -37 -9 -82 -22 -114 -25 -289 -6
-353 23 -73 21 -100 -6 -102 -13 -1 -28 -10 -35 -19 -7 -10 -13 -15 -13 -11 0
3 -25 -5 -56 -19 -66 -29 -86 -28 -239 16 -183 52 -248 69 -300 76 -27 3 -59
8 -70 10 -82 16 -317 24 -425 14 l-45 -5 3 33 c3 28 1 32 -21 32 -15 0 -31
-10 -42 -26 -16 -25 -16 -58 0 -144 3 -14 7 -39 10 -57 3 -18 10 -45 16 -60 6
-15 10 -30 10 -33 -2 -13 50 -159 76 -217 13 -29 13 -34 0 -48 -18 -18 -41
-20 -31 -3 4 6 -9 -1 -29 -16 -20 -16 -43 -26 -50 -23 -8 3 -21 -3 -30 -14 -9
-10 -35 -22 -57 -25 -22 -4 -38 -9 -36 -12 3 -3 -14 -14 -37 -25 -23 -12 -46
-27 -50 -34 -4 -7 -13 -13 -18 -13 -6 0 -7 6 -3 13 6 8 3 8 -9 -1 -9 -8 -22
-10 -28 -6 -7 4 -9 3 -6 -3 4 -6 -25 -24 -66 -42 -39 -18 -80 -37 -90 -42 -10
-5 -23 -7 -30 -3 -7 4 -8 3 -4 -1 4 -5 -7 -16 -25 -25 -18 -9 -109 -55 -203
-102 -93 -47 -195 -97 -225 -112 -98 -48 -283 -145 -380 -200 -52 -30 -113
-64 -135 -76 -268 -149 -644 -384 -791 -494 -23 -17 -50 -36 -60 -42 -18 -11
-18 -13 -2 -30 14 -17 15 -21 2 -38 -20 -28 -18 -31 23 -34 27 -2 53 7 102 37
64 37 437 240 651 353 142 76 460 235 594 297 102 48 126 54 126 30 0 -28 135
-189 158 -189 5 0 16 -7 23 -16 8 -9 30 -27 49 -39 19 -12 51 -37 70 -55 45
-41 138 -103 182 -120 18 -8 36 -18 39 -22 3 -5 15 -10 26 -12 11 -3 29 -9 39
-15 11 -5 31 -12 46 -15 15 -4 33 -12 40 -19 7 -6 24 -13 38 -15 48 -5 71 -13
66 -21 -3 -5 15 -7 41 -6 43 2 44 1 22 -11 -16 -9 -19 -14 -9 -14 8 -1 24 -3
35 -6 24 -5 147 -24 158 -24 4 0 7 -4 7 -9 0 -5 -24 -15 -52 -22 -88 -20 -425
-135 -568 -192 -259 -104 -505 -226 -734 -363 -77 -46 -151 -84 -163 -84 -15
0 -33 -14 -53 -42 -17 -24 -39 -52 -49 -63 -46 -51 -56 -113 -28 -178 24 -58
230 -128 417 -142 329 -24 610 -21 880 10 115 13 145 17 159 20 9 1 36 6 61 9
87 14 236 46 325 72 144 41 135 41 136 3 0 -19 2 -45 4 -59 5 -30 14 -135 14
-168 1 -23 3 -24 74 -18 158 13 194 16 247 21 99 10 154 14 225 20 39 3 90 7
115 10 25 2 77 7 115 10 39 3 93 8 120 11 56 5 115 10 225 19 172 14 281 24
335 30 22 3 76 8 120 11 44 3 96 7 115 9 19 2 69 6 110 10 41 3 97 8 123 11
27 3 74 7 105 9 31 2 83 7 115 10 64 6 140 12 237 20 36 3 85 7 110 10 25 2
74 7 110 10 36 3 88 8 115 10 28 3 84 7 125 10 41 3 91 8 110 10 39 5 166 16
220 20 45 3 172 14 230 20 55 5 154 13 235 20 33 3 83 7 110 10 28 2 82 7 120
10 39 3 90 8 115 10 85 9 145 14 220 20 41 3 93 8 115 10 22 2 76 7 120 11 44
4 89 8 100 9 11 1 28 3 38 4 17 1 18 8 13 69 -4 37 -9 96 -12 132 -2 36 -7 84
-10 107 -2 23 -7 75 -9 115 -3 40 -7 89 -9 108 -3 19 -8 71 -11 115 -3 44 -8
103 -11 130 -2 28 -7 70 -9 95 -2 25 -7 81 -11 125 -3 44 -8 98 -10 120 -2 22
-7 75 -10 118 -3 43 -7 86 -9 95 -2 9 -4 20 -4 24 -1 3 -13 5 -28 3 -16 -2
-62 -6 -103 -9 -41 -4 -95 -9 -120 -11 -43 -4 -101 -9 -232 -20 -73 -6 -164
-14 -228 -20 -25 -2 -79 -7 -120 -10 -75 -6 -136 -11 -220 -20 -25 -2 -79 -7
-120 -11 -41 -3 -91 -7 -110 -9 -19 -2 -69 -6 -110 -9 -41 -4 -95 -9 -120 -11
-25 -2 -76 -7 -115 -10 -38 -3 -90 -7 -115 -10 -25 -2 -72 -7 -105 -9 -33 -3
-89 -8 -125 -11 -36 -3 -102 -8 -146 -10 l-82 -3 25 43 c27 48 37 85 23 85 -5
0 -7 7 -4 15 4 8 1 15 -6 15 -6 0 -9 4 -6 9 3 5 -1 11 -9 15 -8 3 -15 12 -15
19 0 18 -28 42 -48 42 -10 0 -19 13 -23 33 -4 19 -12 39 -19 45 -10 9 -11 9
-6 0 9 -16 4 -16 -28 -1 -14 6 -28 19 -31 28 -9 29 -55 85 -55 68 0 -9 4 -20
10 -23 5 -3 17 -22 26 -42 16 -32 16 -40 3 -77 -10 -29 -20 -42 -36 -44 -18
-3 -23 2 -23 19 0 35 -12 15 -16 -27 -5 -51 -10 -53 -42 -14 l-28 33 -69 -10
c-39 -6 -76 -8 -83 -6 -13 5 -12 59 1 80 4 7 5 24 1 38 -4 15 -2 25 5 25 16 0
13 41 -4 64 -8 10 -12 24 -8 29 4 6 0 8 -11 4 -14 -6 -17 -3 -12 9 10 25 -12
56 -35 49 -11 -4 -26 -1 -34 5 -11 9 -18 9 -29 -3 -18 -17 -66 -11 -83 10 -10
13 -16 11 -43 -15 -16 -17 -30 -29 -30 -27 0 2 -22 -5 -50 -16 -27 -10 -50
-17 -50 -14 0 12 -77 -35 -97 -59 -30 -35 -50 -33 -25 2 63 87 198 181 302
209 39 11 142 9 161 -3 8 -5 9 -3 4 6 -10 16 33 4 56 -16 8 -8 21 -14 28 -14
6 0 26 -7 42 -16 l30 -15 -16 25 c-30 45 -127 111 -165 112 -56 2 -60 3 -55
17 3 6 7 59 9 117 2 58 5 111 5 119 2 26 29 -8 36 -45 3 -19 13 -38 21 -41 20
-8 28 2 19 24 -5 10 -7 21 -7 26 1 4 3 39 3 77 1 39 4 70 8 70 3 0 7 15 8 33
2 38 25 111 60 187 49 106 60 135 56 146 -2 6 8 43 22 81 14 39 25 78 25 87 0
9 5 16 10 16 6 0 10 8 10 18 0 9 7 26 15 36 8 10 12 23 9 27 -3 5 0 9 6 9 6 0
8 5 4 11 -3 6 5 3 20 -6 32 -21 34 -30 4 -14 -29 14 -18 4 59 -60 34 -28 67
-61 74 -74 10 -19 8 -19 -13 4 -37 41 -119 100 -130 93 -5 -4 0 -16 12 -29 14
-15 18 -25 11 -30 -10 -6 -15 0 -12 17 0 4 -6 5 -14 2 -24 -10 -18 -20 41 -70
30 -26 60 -57 66 -68 6 -13 -5 -6 -29 17 -21 20 -44 37 -51 37 -7 0 -12 3 -12
8 0 13 -42 34 -51 25 -5 -5 28 -45 77 -93 48 -47 101 -103 120 -125 39 -48 88
-145 99 -195 12 -53 5 -176 -14 -257 -16 -71 -18 -163 -3 -163 13 0 81 157
107 245 32 110 38 154 36 255 -2 154 -38 288 -91 340 -3 3 -30 34 -60 70 -30
36 -67 79 -82 95 -26 28 -27 30 -8 33 11 2 20 7 20 11 0 4 10 7 23 7 31 0 149
26 143 31 -2 3 -31 -1 -63 -8 -32 -7 -67 -14 -78 -14 -11 -1 -33 -7 -48 -13
-33 -14 -73 3 -56 24 7 8 6 15 -2 20 -8 4 -9 3 -5 -4 4 -7 2 -12 -3 -12 -6 0
-11 5 -11 12 0 6 -3 9 -6 5 -4 -3 -19 0 -33 8 -25 12 -54 7 -52 -9 1 -3 1 -10
1 -14 0 -9 -101 -45 -125 -45 -8 0 -15 -4 -15 -9 0 -11 23 -10 55 2 40 15 75
20 75 9 0 -5 -4 -9 -9 -9 -5 0 -17 -7 -25 -16 -9 -8 -80 -33 -159 -55 -78 -22
-160 -45 -182 -52 -22 -6 -42 -12 -45 -13 -3 0 -25 -6 -49 -13 -40 -11 -45
-11 -54 5 -14 25 -108 118 -182 180 -64 55 -98 73 -88 49 4 -12 0 -13 -26 -4
-17 6 -31 15 -31 20 0 5 -5 9 -12 9 -6 0 -19 6 -27 14 -45 41 -233 118 -288
118 -20 0 -23 6 -23 39 0 38 -7 45 -38 32z m48 -188 c31 -17 44 -19 34 -3 -4
7 -3 8 5 4 6 -4 9 -12 6 -17 -4 -5 -4 -9 -1 -9 2 0 13 -3 23 -7 15 -6 16 -5 5
9 -11 14 -10 16 4 14 21 -3 29 -21 14 -31 -15 -9 25 -62 53 -71 31 -9 136 -74
172 -105 37 -32 105 -97 91 -86 -6 4 -14 7 -20 7 -5 0 -1 -6 9 -14 11 -8 23
-12 28 -9 11 7 37 -16 37 -33 0 -8 -8 -11 -20 -9 -11 2 -18 0 -15 -6 9 -13 -9
-11 -24 4 -10 10 -11 8 -5 -6 3 -10 3 -17 -2 -16 -5 1 -12 0 -16 -1 -5 -1 -11
-3 -15 -4 -24 -4 -72 -30 -76 -40 -6 -15 144 31 154 47 4 5 11 7 17 3 6 -3 13
0 15 6 13 32 184 -194 257 -338 22 -43 44 -101 50 -129 25 -125 32 -161 32
-178 -1 -10 5 -49 12 -88 8 -38 11 -71 7 -73 -4 -3 -36 -16 -71 -29 -261 -98
-457 -297 -526 -533 -21 -73 -21 -134 1 -197 9 -27 14 -51 11 -54 -3 -4 -20
-7 -38 -8 -75 -6 -185 -16 -218 -20 -32 -4 -106 -10 -230 -19 -49 -4 -162 -14
-225 -21 -22 -2 -76 -7 -120 -10 -44 -3 -93 -8 -110 -10 -138 -18 -256 -22
-330 -11 -316 45 -631 156 -833 293 -74 51 -210 163 -211 174 -1 10 112 29
194 34 63 4 227 25 236 31 5 3 9 -1 9 -8 0 -9 3 -9 8 -2 9 14 94 26 86 12 -4
-7 0 -7 12 0 11 5 43 9 73 10 30 0 57 4 60 9 13 19 551 21 551 3 0 -3 19 -6
43 -5 23 1 67 -3 97 -7 99 -15 134 -19 175 -22 23 -2 83 -21 135 -44 52 -22
106 -43 120 -47 23 -5 22 -3 -10 26 -19 17 -28 28 -20 24 8 -5 11 -4 7 0 -4 5
-45 27 -90 50 -47 23 -82 47 -82 55 0 9 -8 14 -18 12 -9 -2 -17 1 -17 6 0 4
-15 19 -32 32 l-33 23 20 -23 20 -23 -22 14 c-13 8 -23 17 -23 21 0 12 -62 51
-84 53 -12 2 -20 8 -18 14 1 7 -1 10 -6 7 -5 -3 -22 8 -38 25 -15 16 -33 28
-39 25 -6 -2 -21 12 -35 30 -14 18 -29 34 -35 34 -14 1 -215 193 -215 206 0
11 178 99 193 95 5 -1 6 3 2 9 -7 11 5 17 48 24 16 3 44 17 63 31 22 17 41 24
52 20 23 -9 92 26 92 48 0 9 6 18 13 18 6 1 22 3 34 4 12 1 37 11 56 22 18 11
58 29 88 41 l55 20 73 -44 c40 -24 75 -44 77 -44 2 0 36 -22 76 -49 83 -56
211 -177 251 -236 52 -79 75 -101 93 -90 13 9 22 6 41 -13 13 -13 22 -26 20
-28 -2 -3 16 -25 40 -50 25 -25 47 -43 50 -40 7 7 -37 76 -48 76 -6 0 -7 4 -4
10 3 5 -5 22 -18 36 -15 16 -23 34 -20 45 3 10 0 19 -6 19 -11 0 -54 80 -46
88 2 2 -16 41 -40 87 -74 140 -104 205 -140 302 l-24 63 22 12 c12 7 25 11 30
10 4 -1 7 2 7 8 0 14 -13 13 -28 -2 -8 -8 -12 -8 -12 -1 0 11 93 48 148 59 18
4 32 10 32 14 0 11 -28 21 -32 11 -2 -4 -34 -18 -73 -33 -38 -14 -79 -29 -89
-33 -13 -6 -17 -5 -13 3 4 6 31 18 60 28 28 9 70 29 91 45 35 25 64 31 51 9
-3 -4 4 -6 15 -3 11 3 20 9 20 14 0 5 -8 6 -17 2 -15 -5 -14 -3 2 10 15 13 17
17 5 17 -10 1 -9 4 5 10 19 8 19 9 1 9 -20 1 -20 1 0 17 10 8 13 13 7 9 -7 -3
-13 -2 -13 3 0 16 -41 22 -46 7 -3 -8 -14 -11 -27 -7 -12 3 -19 1 -15 -3 5 -5
23 -8 42 -7 45 2 42 -20 -7 -54 -36 -24 -37 -24 -37 -4 0 11 5 21 10 21 6 1
14 2 19 3 6 0 16 7 23 14 10 10 3 10 -26 -2 -46 -19 -47 -19 -44 -5 2 6 -3 14
-11 17 -9 3 -11 0 -6 -8 6 -10 4 -12 -9 -7 -10 4 -15 3 -11 -3 3 -6 -4 -9 -17
-9 -30 2 -51 -3 -63 -17 -14 -15 -45 -25 -45 -14 0 5 8 11 18 13 14 4 13 5 -4
6 -36 2 -48 79 -47 288 1 87 10 153 21 153 4 -1 18 -7 32 -15z m1120 -194 c0
-6 -4 -12 -9 -15 -32 -20 -154 -305 -166 -391 -4 -22 -8 -49 -10 -60 -2 -11
-4 -36 -5 -55 -1 -32 -3 -28 -25 35 -33 95 -104 236 -159 315 -25 35 -44 65
-43 66 1 1 81 23 177 49 96 26 186 50 200 55 34 11 40 12 40 1z m-1017 -254
c3 -8 0 -14 -6 -14 -7 0 -30 -3 -52 -7 -38 -6 -39 -6 -15 8 14 8 28 12 32 10
3 -2 9 0 13 6 9 14 22 13 28 -3z m44 -3 c-3 -3 -12 -4 -19 -1 -8 3 -5 6 6 6
11 1 17 -2 13 -5z m-1439 -16 c7 -7 12 -8 12 -4 0 5 7 3 16 -4 9 -8 50 -15
101 -17 48 -1 89 -6 92 -10 6 -8 15 -11 56 -19 11 -2 31 -6 45 -9 14 -2 48 -7
75 -11 58 -7 258 -59 288 -76 20 -10 20 -11 2 -24 -18 -14 -18 -14 1 -15 13 0
10 -4 -11 -11 -16 -6 -32 -14 -35 -17 -3 -3 -14 -7 -25 -9 -13 -1 -7 5 15 17
46 26 34 26 -24 0 -26 -11 -44 -24 -41 -29 3 -6 0 -7 -8 -4 -8 3 -21 -2 -30
-10 -9 -9 -22 -16 -30 -16 -24 0 -191 -61 -202 -74 -11 -13 -38 -26 -71 -32
-12 -2 -35 -11 -50 -19 -16 -8 -36 -15 -44 -15 -19 0 -99 155 -128 250 -19 59
-24 78 -37 148 -4 24 13 30 33 10z m1172 -52 c0 -5 -69 -46 -78 -46 -4 0 0 5
8 11 11 7 4 8 -25 4 -32 -5 -36 -4 -22 5 10 6 36 13 58 15 23 2 44 6 47 9 6 7
12 8 12 2z m-26 -76 c-11 -11 -74 -32 -74 -25 0 3 12 11 28 19 32 18 61 21 46
6z m86 -69 c11 -22 17 -47 14 -55 -5 -14 -9 -14 -35 1 -16 10 -29 20 -29 24 0
3 -11 11 -25 17 -14 6 -25 16 -25 20 0 8 47 27 72 31 4 1 17 -17 28 -38z
m-408 -39 c-18 -10 -29 -22 -25 -27 4 -5 0 -3 -10 5 -17 13 -17 14 5 26 13 8
32 13 43 13 15 0 12 -4 -13 -17z m-359 -76 c3 -8 -2 -16 -14 -19 -12 -3 -17
-1 -13 5 5 7 -2 9 -20 6 -14 -3 -26 -2 -26 3 0 18 66 23 73 5z m92 -16 c-3 -5
-12 -10 -18 -10 -7 0 -6 4 3 10 19 12 23 12 15 0z m-8 -36 c-3 -3 -12 -4 -19
-1 -8 3 -5 6 6 6 11 1 17 -2 13 -5z m118 -4 c-3 -5 -12 -10 -18 -10 -7 0 -6 4
3 10 19 12 23 12 15 0z m-325 -52 c-12 -10 -27 -18 -34 -18 -6 0 -2 8 9 16 11
8 19 19 18 24 -2 5 5 6 14 3 14 -6 13 -9 -7 -25z m60 28 c0 -2 -7 -7 -16 -10
-8 -3 -12 -2 -9 4 6 10 25 14 25 6z m-83 -12 c-3 -3 -12 -4 -19 -1 -8 3 -5 6
6 6 11 1 17 -2 13 -5z m-137 -262 c30 -20 81 -63 194 -165 17 -15 56 -44 86
-64 105 -71 105 -72 -7 -65 -202 13 -638 6 -728 -12 -11 -2 -47 -7 -80 -10
-67 -8 -187 -32 -225 -46 -14 -5 -36 -11 -50 -14 -14 -2 -60 -15 -102 -29 -43
-14 -78 -23 -78 -21 0 2 24 14 53 28 76 35 536 260 652 319 198 100 230 115
240 109 6 -3 26 -17 45 -30z m211 -1166 c0 -17 2 -38 3 -46 3 -17 16 -155 21
-236 2 -29 6 -74 9 -100 3 -27 8 -83 11 -124 3 -41 8 -96 11 -122 3 -27 3 -48
0 -48 -3 0 -65 -11 -138 -24 -153 -28 -196 -34 -393 -50 -201 -17 -662 -3
-855 25 -125 18 -319 80 -327 104 -1 6 19 20 45 32 26 13 106 54 177 93 179
96 175 94 495 229 327 137 503 201 625 226 11 3 36 12 55 20 46 21 231 63 248
57 6 -2 12 -18 13 -36z m19 -846 c-8 -5 -22 -9 -30 -9 -10 0 -8 3 5 9 27 12
43 12 25 0z m-50 -5 c0 -8 -39 -21 -80 -28 -23 -4 -17 0 20 12 30 11 56 19 58
20 1 1 2 -1 2 -4z"/>
<path d="M4850 7814 c0 -8 5 -12 10 -9 6 4 8 11 5 16 -9 14 -15 11 -15 -7z"/>
<path d="M4785 7796 c31 -14 50 -11 40 5 -4 5 -21 9 -38 9 l-32 -1 30 -13z"/>
<path d="M4875 7800 c-3 -6 1 -7 9 -4 18 7 21 14 7 14 -6 0 -13 -4 -16 -10z"/>
<path d="M4860 7778 c-19 -5 -39 -14 -45 -19 -6 -6 3 -5 19 1 16 6 35 9 42 6
7 -3 15 2 18 10 3 8 4 14 3 13 -1 0 -18 -5 -37 -11z"/>
<path d="M4925 7729 c-27 -10 -37 -17 -21 -14 31 7 97 33 81 33 -5 0 -32 -8
-60 -19z"/>
<path d="M4815 7691 c-28 -13 -36 -20 -25 -24 8 -4 5 -5 -8 -3 -19 4 -21 2
-12 -9 14 -16 43 -8 36 10 -2 7 5 16 17 19 31 8 39 7 32 -4 -3 -5 -2 -10 4
-10 5 0 9 9 8 20 -2 24 -1 24 -52 1z"/>
<path d="M4710 7630 c-8 -5 -10 -10 -5 -10 6 0 17 5 25 10 8 5 11 10 5 10 -5
0 -17 -5 -25 -10z"/>
<path d="M4655 7610 c-8 -13 5 -13 25 0 13 8 13 10 -2 10 -9 0 -20 -4 -23 -10z"/>
<path d="M6181 8166 c-9 -11 -6 -13 14 -13 14 0 28 3 31 8 3 5 -3 6 -12 2 -12
-4 -15 -3 -10 5 10 17 -9 15 -23 -2z"/>
<path d="M6118 8153 c6 -2 18 -2 25 0 6 3 1 5 -13 5 -14 0 -19 -2 -12 -5z"/>
<path d="M6070 8146 c0 -2 7 -7 16 -10 8 -3 12 -2 9 4 -6 10 -25 14 -25 6z"/>
<path d="M6030 8127 c0 -5 -9 -7 -20 -4 -11 3 -20 1 -20 -4 0 -10 33 -10 70 0
l25 7 -27 6 c-16 3 -28 1 -28 -5z"/>
<path d="M5957 8109 c7 -7 15 -10 18 -7 3 3 -2 9 -12 12 -14 6 -15 5 -6 -5z"/>
<path d="M5863 8085 c0 -7 8 -10 19 -7 10 2 18 6 18 7 0 1 -8 5 -18 7 -11 3
-19 0 -19 -7z"/>
<path d="M5517 8013 c-9 -2 -15 -9 -12 -14 4 -5 1 -9 -4 -9 -6 0 -11 4 -11 9
0 4 -16 3 -35 -3 -19 -6 -35 -15 -35 -19 0 -5 -4 -6 -9 -2 -6 3 -31 0 -56 -6
-31 -8 -42 -15 -34 -20 8 -4 16 -3 20 2 3 6 15 9 25 8 15 -2 66 5 107 16 4 2
13 3 21 4 8 0 22 8 30 17 9 8 20 13 25 9 5 -3 12 -1 16 5 6 10 -15 12 -48 3z"/>
<path d="M5265 7940 c-4 -6 -11 -7 -17 -4 -7 4 -8 2 -4 -4 4 -7 14 -12 22 -12
9 0 12 5 8 12 -5 8 -2 9 9 5 10 -3 17 -2 17 3 0 13 -27 13 -35 0z"/>
<path d="M5205 7920 c-4 -6 -11 -7 -17 -4 -7 4 -8 2 -4 -5 6 -9 11 -9 21 -1 8
7 20 8 26 4 8 -4 9 -3 5 4 -9 15 -23 15 -31 2z"/>
<path d="M4205 7610 c-3 -6 1 -7 9 -4 18 7 21 14 7 14 -6 0 -13 -4 -16 -10z"/>
<path d="M6668 7413 c-1 -5 -22 -21 -45 -37 -47 -31 -53 -42 -24 -42 10 0 18
7 17 15 -1 9 16 24 36 36 36 19 49 35 29 35 -5 0 -11 -3 -13 -7z"/>
<path d="M6640 7355 c-11 -13 -10 -14 4 -9 9 3 16 10 16 15 0 13 -6 11 -20 -6z"/>
<path d="M6530 7309 c-19 -15 -41 -29 -48 -29 -7 0 -11 -4 -8 -9 3 -5 -5 -12
-19 -15 -14 -4 -25 -11 -25 -16 0 -5 17 0 39 13 43 25 106 76 100 82 -2 2 -20
-10 -39 -26z"/>
<path d="M6391 7210 c-13 -11 -19 -20 -14 -20 6 0 18 9 28 20 23 25 17 25 -14
0z"/>
<path d="M5771 6782 c-12 -23 2 -57 32 -76 13 -9 33 -34 46 -56 24 -43 51 -53
51 -20 0 17 4 19 18 11 28 -15 92 -30 92 -22 0 5 -10 20 -22 34 -13 15 -33 39
-45 55 -12 16 -46 41 -75 54 -79 38 -87 39 -97 20z"/>
<path d="M10317 5154 c-1 -1 -46 -5 -100 -9 -53 -3 -107 -8 -120 -10 -12 -3
-54 -7 -92 -9 -67 -5 -130 -10 -242 -22 -29 -3 -76 -7 -105 -9 -107 -8 -204
-16 -243 -20 -39 -4 -108 -10 -230 -20 -33 -3 -80 -7 -105 -10 -25 -2 -76 -7
-115 -10 -38 -3 -90 -7 -115 -10 -25 -2 -79 -7 -120 -10 -41 -3 -91 -8 -110
-10 -19 -2 -73 -7 -120 -10 -47 -3 -101 -8 -120 -10 -34 -4 -104 -10 -217 -20
-32 -2 -83 -7 -113 -9 -30 -3 -89 -8 -130 -11 -41 -4 -86 -8 -100 -10 -14 -2
-63 -6 -110 -10 -47 -3 -101 -8 -120 -10 -19 -2 -69 -7 -110 -10 -41 -3 -95
-8 -120 -10 -134 -12 -172 -15 -240 -21 -41 -3 -91 -7 -110 -9 -19 -2 -66 -6
-105 -9 -77 -7 -170 -16 -225 -21 -19 -2 -73 -7 -120 -10 -47 -3 -101 -8 -120
-10 -19 -3 -66 -7 -105 -10 -38 -2 -88 -7 -110 -9 -22 -2 -76 -7 -120 -11 -44
-3 -91 -8 -105 -10 -14 -2 -70 -7 -124 -10 -55 -4 -107 -8 -116 -10 -8 -2 -59
-6 -112 -10 -54 -3 -105 -8 -115 -9 -10 -2 -61 -7 -113 -11 -52 -3 -106 -8
-120 -10 -14 -2 -63 -7 -110 -10 -47 -3 -101 -7 -120 -10 -19 -2 -66 -7 -105
-10 -38 -3 -92 -8 -120 -10 -27 -3 -79 -7 -115 -10 -63 -5 -112 -9 -215 -20
-27 -3 -84 -7 -125 -11 -41 -3 -93 -7 -115 -9 -22 -1 -76 -6 -120 -9 -44 -4
-93 -8 -110 -11 -16 -2 -73 -7 -125 -11 -52 -4 -102 -8 -110 -10 -8 -1 -30 -3
-48 -3 -32 -1 -33 -1 -28 -43 5 -39 12 -113 21 -223 11 -126 23 -266 30 -340
2 -22 6 -71 10 -110 13 -170 16 -203 21 -246 6 -53 11 -109 20 -224 3 -44 7
-91 9 -105 2 -14 4 -36 4 -48 1 -26 -1 -26 186 -7 22 2 72 7 110 10 39 3 88 8
110 10 22 2 76 6 120 10 44 3 98 8 120 10 22 2 69 7 105 10 36 3 88 8 115 10
28 3 79 7 115 10 36 3 85 7 110 10 25 2 79 7 120 10 41 3 91 8 110 10 19 3 69
7 110 10 41 3 98 7 125 10 28 2 79 7 115 10 36 3 85 8 110 10 25 3 74 7 110
10 36 3 91 7 123 10 31 3 85 7 120 10 155 13 185 16 227 20 25 2 72 7 105 10
33 2 87 7 120 10 33 3 83 7 110 9 47 4 137 12 230 21 22 2 72 7 110 10 39 3
88 7 110 10 22 2 81 7 130 10 50 4 101 8 115 10 14 2 63 7 110 10 47 4 99 8
115 10 17 1 66 6 110 10 44 3 100 8 125 11 25 2 74 6 110 9 36 3 85 8 110 10
25 3 74 7 110 10 36 3 85 7 110 10 25 2 79 7 120 10 106 9 167 14 230 20 69 7
134 12 230 20 41 3 91 8 110 10 19 2 73 6 120 10 47 3 101 8 120 10 19 2 69 7
110 11 41 3 91 7 110 9 19 2 71 6 115 10 44 3 96 8 115 10 38 5 144 14 225 20
58 4 172 14 230 20 50 5 153 14 225 20 58 4 191 16 225 20 11 1 39 3 62 4 29
1 41 5 38 14 -2 6 -7 50 -10 97 -3 47 -8 101 -9 120 -2 19 -7 69 -10 110 -4
41 -9 95 -11 120 -2 25 -7 72 -9 105 -9 108 -17 189 -21 235 -9 93 -19 213
-30 350 -4 52 -9 102 -11 110 -1 8 -3 34 -3 58 l-1 43 -46 -3 c-25 -2 -46 -4
-47 -4z"/>
<path d="M9388 3595 c-2 -2 -43 -6 -93 -9 -49 -4 -101 -8 -115 -10 -14 -3 -65
-7 -115 -11 -49 -3 -106 -8 -125 -10 -19 -2 -69 -6 -110 -10 -41 -3 -91 -8
-110 -9 -19 -2 -71 -7 -115 -10 -44 -4 -98 -9 -120 -11 -71 -7 -148 -14 -225
-20 -41 -3 -95 -8 -120 -10 -74 -7 -161 -15 -230 -20 -35 -3 -83 -7 -105 -10
-22 -2 -69 -7 -105 -10 -36 -3 -90 -7 -120 -10 -30 -2 -86 -7 -123 -10 -37 -3
-82 -7 -100 -10 -18 -2 -70 -7 -117 -10 -47 -3 -101 -8 -120 -10 -19 -2 -69
-6 -110 -10 -41 -3 -95 -8 -120 -10 -25 -2 -76 -7 -115 -10 -38 -4 -86 -8
-105 -10 -19 -2 -69 -6 -110 -9 -41 -4 -95 -8 -120 -11 -25 -2 -81 -6 -125
-10 -44 -3 -96 -8 -115 -10 -19 -2 -71 -7 -115 -10 -44 -3 -96 -7 -115 -10
-19 -2 -71 -7 -115 -10 -44 -3 -96 -8 -115 -10 -19 -2 -66 -7 -105 -10 -38 -3
-92 -7 -120 -10 -27 -3 -79 -7 -115 -10 -36 -3 -81 -7 -100 -9 -19 -2 -71 -7
-115 -10 -44 -4 -100 -8 -125 -11 -25 -2 -74 -7 -110 -10 -36 -3 -85 -8 -110
-10 -25 -2 -81 -7 -125 -10 -44 -3 -96 -8 -115 -10 -19 -2 -71 -7 -115 -10
-44 -4 -96 -8 -115 -10 -19 -2 -71 -6 -115 -10 -44 -4 -96 -8 -115 -10 -19 -2
-71 -7 -115 -11 -44 -4 -91 -8 -105 -9 -14 -2 -33 -3 -42 -4 -14 -1 -16 -9
-13 -48 2 -27 7 -82 10 -123 4 -41 8 -91 10 -110 2 -19 6 -74 10 -122 4 -48 8
-95 10 -105 2 -10 4 -28 4 -39 1 -18 6 -21 34 -19 17 2 68 6 112 10 44 3 94 8
110 10 17 3 66 7 110 10 44 2 100 7 125 10 53 5 129 12 225 20 39 3 93 8 120
10 28 3 79 7 115 10 101 9 265 23 335 30 54 5 135 12 230 19 61 5 141 12 230
21 48 5 70 7 230 20 39 3 90 8 115 10 25 3 79 7 120 10 41 3 93 8 115 10 69 7
147 14 230 20 44 3 96 8 115 10 19 2 69 7 110 10 41 4 91 8 110 10 19 2 71 6
115 10 165 13 274 23 340 30 39 5 84 8 230 20 39 3 88 7 110 9 100 10 207 19
355 31 41 4 86 8 100 10 14 2 63 6 110 10 47 3 103 8 125 10 22 3 72 7 110 10
39 2 88 7 110 10 22 2 76 7 120 10 44 3 96 7 115 10 19 2 71 7 115 10 44 4 98
8 120 10 22 2 72 7 110 10 39 3 88 8 110 10 22 2 78 7 125 10 47 4 93 9 103
11 10 1 43 4 73 5 l56 3 -7 90 c-3 50 -8 107 -10 126 -8 67 -28 300 -29 333 0
15 -9 17 -58 16 -32 -1 -59 -3 -60 -4z"/>
</g>
</svg>
