<svg xmlns="http://www.w3.org/2000/svg" width="45" height="41" viewBox="-0.5 -0.5 45 41.3"><path d="M44 13.5C44 6 36.8 0 28 0c-6.6 0-12.3 3.4-14.7 8.2C14.1 8.1 14.9 8 15.7 8c2.4-3.6 7-6 12.3-6 7.7 0 14 5.2 14 11.5 0 3.1-1.5 6-4.2 8.2 -0.6 0.5-0.9 1.3-0.7 2.1l0.8 2.9 -4.1-1.6c-0.1 0.7-0.2 1.3-0.4 2L41 30l-1.9-6.8C42.1 20.8 44 17.3 44 13.5zM16 10C7.2 10 0 16 0 23.5c0 3.8 1.9 7.3 4.9 9.7L3 40l9-3.4c1.3 0.3 2.6 0.4 4 0.4 8.8 0 16-6 16-13.5S24.8 10 16 10zM16 35c-1.2 0-2.4-0.1-3.6-0.4 -0.1 0-0.3 0-0.4 0 -0.2 0-0.5 0-0.7 0.1l-5.2 2 0.8-2.9c0.2-0.8 0-1.6-0.7-2.1C3.5 29.5 2 26.6 2 23.5 2 17.2 8.3 12 16 12s14 5.2 14 11.5S23.7 35 16 35z" style="fill:#E10078;stroke:#E10078"/></svg>