<svg xmlns="http://www.w3.org/2000/svg" viewBox="0 0 129.126 129.126">
  <g fill="#D41773">
    <path d="M70.728 57.048c-.607-.66-1.293-1.2-2.058-1.623-.766-.422-1.57-.633-2.414-.633-1.848 0-3.55.54-5.106 1.622-1.557 1.083-2.89 2.442-3.998 4.077-1.108 1.637-1.98 3.418-2.612 5.344-.633 1.928-.95 3.76-.95 5.502 0 2.216.633 4.05 1.9 5.5 1.267 1.453 2.902 2.178 4.908 2.178 1.742 0 3.35-.566 4.83-1.7 1.476-1.136 2.77-2.56 3.878-4.275s1.98-3.55 2.612-5.503c.633-1.952.95-3.746.95-5.383 0-.95-.172-1.872-.515-2.77-.344-.897-.818-1.676-1.425-2.336z"/>
    <path d="M113.59 64.563l15.536-10.226-17.937-4.924 11.616-14.527-18.58.86 6.56-17.405-17.407 6.56.86-18.58-14.527 11.617L74.79 0 64.562 15.537 54.337 0l-4.924 17.937L34.887 6.32l.86 18.58-17.405-6.56L24.9 35.747l-18.58-.86 11.617 14.527L0 54.337l15.537 10.226L0 74.79l17.937 4.923L6.32 94.24l18.58-.86-6.56 17.404 17.406-6.56-.86 18.58 14.526-11.616 4.924 17.937 10.226-15.537 10.226 15.537 4.924-17.937 14.527 11.617-.86-18.58 17.404 6.56-6.56-17.406 18.58.86-11.616-14.527 17.937-4.924-15.536-10.227zM76.31 79.885c1.212 0 2.465-.554 3.76-1.662 1.29-1.108 2.465-2.533 3.52-4.274 1.055-1.743 1.926-3.694 2.614-5.86.686-2.162 1.03-4.3 1.03-6.41 0-3.113-.595-5.938-1.782-8.47-1.188-2.533-2.785-4.684-4.79-6.452-2.006-1.768-4.288-3.126-6.847-4.076-2.56-.95-5.238-1.425-8.035-1.425-3.378 0-6.53.673-9.46 2.02s-5.475 3.18-7.638 5.5c-2.165 2.323-3.866 5.015-5.106 8.074-1.24 3.063-1.86 6.334-1.86 9.816 0 3.536.646 6.835 1.94 9.896 1.29 3.06 3.06 5.713 5.302 7.955 2.243 2.243 4.84 4.01 7.797 5.304 2.955 1.295 6.095 1.94 9.42 1.94 3.8 0 7.453-.87 10.963-2.612 3.51-1.74 6.398-4.063 8.667-6.966h4.986c-1.265 2.216-2.796 4.183-4.59 5.897-1.794 1.714-3.76 3.165-5.897 4.353-2.137 1.188-4.42 2.085-6.847 2.69-2.428.606-4.908.91-7.44.91-4.17 0-8.063-.765-11.677-2.295-3.616-1.53-6.756-3.627-9.42-6.293-2.666-2.664-4.764-5.805-6.294-9.42-1.53-3.614-2.295-7.532-2.295-11.755 0-4.062.78-7.876 2.336-11.438 1.556-3.562 3.667-6.675 6.333-9.34 2.663-2.665 5.777-4.763 9.34-6.294 3.56-1.53 7.347-2.295 11.358-2.295 3.64 0 7.097.606 10.37 1.82 3.27 1.215 6.135 2.89 8.588 5.026 2.455 2.137 4.395 4.696 5.818 7.678 1.426 2.98 2.14 6.267 2.14 9.854 0 3.432-.622 6.56-1.862 9.38-1.24 2.824-2.783 5.24-4.63 7.244-1.85 2.006-3.854 3.562-6.017 4.67-2.165 1.108-4.17 1.662-6.016 1.662-1.374 0-2.534-.422-3.484-1.267-.95-.842-1.478-2.136-1.583-3.877h-.238c-1.214 1.372-2.665 2.6-4.354 3.68-1.688 1.083-3.51 1.623-5.46 1.623-1.69 0-3.234-.33-4.632-.99-1.4-.658-2.586-1.542-3.562-2.65-.977-1.108-1.74-2.427-2.295-3.958-.553-1.53-.83-3.166-.83-4.908 0-2.743.447-5.462 1.345-8.153.897-2.69 2.15-5.092 3.76-7.203 1.61-2.11 3.562-3.825 5.858-5.146 2.295-1.318 4.84-1.98 7.64-1.98 1.846 0 3.56.49 5.144 1.465 1.583.978 2.823 2.652 3.72 5.026l1.82-4.987h4.988l-6.65 22.48c-.21.687-.408 1.386-.593 2.098-.186.714-.277 1.36-.277 1.94.005 1.638.638 2.455 1.904 2.455z"/>
  </g>
</svg>
