<svg version="1.1" id="Layer_1" xmlns="http://www.w3.org/2000/svg" xmlns:xlink="http://www.w3.org/1999/xlink" x="0px" y="0px"
	 viewBox="-64 66.9 129.1 129.1" style="enable-background:new -64 66.9 129.1 129.1;" xml:space="preserve">
<style type="text/css">
	.st0{fill:#D41773;}
</style>
<g>
	<path class="st0" d="M-11.9,117.8c-1.4-1.1-3.4-1.3-4.3-0.7c0.8,0.7,1.8,1.4,2.4,2.2c0.7,1,0.6,2.2,0,3.3c-1.1,1.8-2.5,2.1-5.5,1
		c0.4,1.7,2.3,3,4.3,3.1c2,0.1,4-1.3,4.8-3.2C-9.5,121.5-10.2,119.2-11.9,117.8z"/>
	<path class="st0" d="M49.7,130.6l15.5-10.2l-17.9-4.9l11.6-14.5l-18.5,0.9l6.5-17.3l-17.3,6.5l0.9-18.5L16,84.2l-4.9-17.9L0.9,81.8
		L-9.3,66.3l-4.9,17.9l-14.5-11.6l0.9,18.5l-17.3-6.5l6.5,17.3l-18.5-0.9l11.6,14.5l-17.9,4.9l15.5,10.2l-15.5,10.2l17.9,4.9
		l-11.6,14.5l18.5-0.9l-6.5,17.3l17.3-6.5l-0.9,18.5l14.5-11.6l4.9,17.9l10.2-15.5L11.1,195l4.9-17.9l14.5,11.6l-0.9-18.5l17.3,6.5
		l-6.5-17.3l18.5,0.9l-11.6-14.5l17.9-4.9L49.7,130.6z M8.1,88.4c6.3,0.1,11.4,5.2,11.4,11.5c0,6.3-5.2,11.5-11.5,11.5
		c-6.3-0.1-11.4-4.9-11.4-11.5C-3.5,92.9,2.3,88.4,8.1,88.4z M39,137.8c-0.8,0.2-1.6,0.2-2.4,0.1c-0.6,0-0.9,0.2-1,0.8
		c-1.4,8.9-6.2,15.6-13.6,20.5c-0.6,0.4-0.9,0.9-0.9,1.6c0,2,0,4,0,6c0,1.4-0.6,2-2,2c-2.6,0-5.3,0-7.9,0c-1.4,0-1.9-0.6-1.9-2
		c0-0.8,0-1.7,0-2.5c-2.3,0.2-4.4,0.4-6.6,0.5c-2.1,0-4.2-0.3-6.5-0.4c0,0.8,0,1.6,0,2.4c0,1.5-0.6,2.1-2.1,2.1c-2.6,0-5.2,0-7.8,0
		c-1.5,0-2-0.5-2.1-2.1c0-2,0-4,0-6c0-0.7-0.2-1.1-0.8-1.5c-5.7-3.7-9.9-8.7-12.3-15.2c-0.2-0.5-0.4-0.7-1-0.7
		c-1.6,0-3.1,0.1-4.7-0.2c-1.8-0.3-3-1.8-3-3.7c0-3.9,0-7.8,0-11.6c0-2.2,1.6-3.9,3.8-3.9c1.5,0,3,0,4.5,0c0.5,0,0.9-0.1,1.1-0.7
		c1.9-4.3,4.7-8,8.4-10.9c1.1-0.8,0.9-1.9,1-2.9c0.4-3.2,0.7-6.4,1.1-9.7c0.2-1.4,1-1.8,2.1-0.9c2.5,1.9,5.1,3.8,7.6,5.8
		c0.3,0.2,0.5,0.6,0.6,0.9c2.7,7.1,10.3,11.5,17.7,10.1c3.9-0.7,7.1-2.6,9.7-5.6c0.5-0.6,0.8-0.6,1.4-0.2
		c6.1,3.9,10.5,9.2,12.9,16.1c0.4,1.1,0.6,2.2,0.9,3.4c0.1,0.5,0.3,0.7,0.8,0.7c0.8,0,1.7,0,2.5,0.1c1.9,0.2,3.3,1.7,3.3,3.5
		C42.2,135.8,41,137.4,39,137.8z"/>
</g>
</svg>
