<svg xmlns="http://www.w3.org/2000/svg" viewBox="0 0 129.126 129.126">
  <path d="M113.59 64.563l15.536-10.226-17.937-4.924 11.616-14.526-18.58.86 6.56-17.405L93.378 24.9l.86-18.58-14.527 11.617L74.79 0 64.562 15.537 54.337 0l-4.924 17.937L34.887 6.32l.86 18.58-17.405-6.56L24.9 35.747l-18.58-.86 11.617 14.526L0 54.337l15.537 10.226L0 74.79l17.937 4.923L6.32 94.24l18.58-.86-6.56 17.404 17.406-6.56-.86 18.58 14.526-11.616 4.924 17.937 10.226-15.537 10.226 15.537 4.924-17.937 14.527 11.617-.86-18.58 17.404 6.56-6.56-17.406 18.58.86-11.616-14.527 17.937-4.924-15.536-10.227zm-44.41 35.63c-4.446-.017-27.015 2.05-27.015-13.68s10.46-20.282 13.507-22.903c-.07-1.535-.09-3.032-.087-4.338-1.172-.81-2.25-1.746-3.182-2.82-2.54-2.93-4.083-6.748-4.083-10.908 0-9.18 7.512-16.692 16.692-16.692s16.692 7.512 16.692 16.692c0 6.174-3.405 11.582-8.423 14.47v3.596s13.68 5.123 13.68 22.562c0 12.994-9.185 14.05-17.78 14.02z" fill="#D41773"/>
</svg>
